<svg xmlns="http://www.w3.org/2000/svg" viewBox="0 0 512 512">
  <defs>
    <radialGradient id="glow" cx="32%" cy="14%" r="78%">
      <stop stop-color="#FFF8EF"/>
      <stop offset=".58" stop-color="#FFD9A8"/>
      <stop offset="1" stop-color="#FF5A45"/>
    </radialGradient>
    <linearGradient id="rim" x1="118" y1="92" x2="392" y2="430" gradientUnits="userSpaceOnUse">
      <stop stop-color="#ffffff"/>
      <stop offset=".48" stop-color="#FFF8EF"/>
      <stop offset="1" stop-color="#FFC857"/>
    </linearGradient>
    <filter id="wheelShadow" x="26" y="28" width="460" height="474" color-interpolation-filters="sRGB" filterUnits="userSpaceOnUse">
      <feDropShadow dx="0" dy="24" stdDeviation="18" flood-color="#111827" flood-opacity=".22"/>
    </filter>
  </defs>
  <rect width="512" height="512" rx="114" fill="url(#glow)"/>
  <path d="M80 138c42-80 142-112 232-91 94 23 157 94 173 188-55-80-131-113-228-100-74 10-132 10-177 3Z" fill="#FFC857" opacity=".2"/>
  <path d="M64 386c72 43 155 51 248 22 58-18 104-20 138-5-44 57-116 88-203 84-81-4-143-38-183-101Z" fill="#42C8A2" opacity=".18"/>
  <g filter="url(#wheelShadow)">
    <circle cx="256" cy="264" r="182" fill="url(#rim)"/>
    <circle cx="256" cy="264" r="164" fill="#FFFFFF"/>
    <path d="M256 100a164 164 0 0 1 82 22l-82 142Z" fill="#FF5A45"/>
    <path d="M338 122a164 164 0 0 1 60 60l-142 82Z" fill="#FF7A45"/>
    <path d="M398 182a164 164 0 0 1 22 82H256Z" fill="#FFA94D"/>
    <path d="M420 264a164 164 0 0 1-22 82l-142-82Z" fill="#FFC857"/>
    <path d="M398 346a164 164 0 0 1-60 60l-82-142Z" fill="#7ED6A5"/>
    <path d="M338 406a164 164 0 0 1-82 22V264Z" fill="#55CDBB"/>
    <path d="M256 428a164 164 0 0 1-82-22l82-142Z" fill="#63C5EA"/>
    <path d="M174 406a164 164 0 0 1-60-60l142-82Z" fill="#A78BFA"/>
    <path d="M114 346a164 164 0 0 1-22-82h164Z" fill="#F47B6B"/>
    <path d="M92 264a164 164 0 0 1 22-82l142 82Z" fill="#EF476F"/>
    <path d="M114 182a164 164 0 0 1 60-60l82 142Z" fill="#FF5A45"/>
    <path d="M174 122a164 164 0 0 1 82-22v164Z" fill="#FFC857"/>
    <circle cx="256" cy="264" r="76" fill="#FFF8EF"/>
    <circle cx="256" cy="264" r="56" fill="#FFFFFF"/>
  </g>
  <path d="M222 202v84c0 23 16 39 34 39s34-16 34-39v-84" fill="none" stroke="#111827" stroke-width="18" stroke-linecap="round"/>
  <path d="M236 202v92M256 202v92M276 202v92" fill="none" stroke="#111827" stroke-width="16" stroke-linecap="round"/>
  <path d="M351 188l27-62 27 62" fill="#111827"/>
  <circle cx="256" cy="264" r="186" fill="none" stroke="#ffffff" stroke-opacity=".32" stroke-width="6"/>
</svg>
